<?xml version="1.0" encoding="UTF-8" standalone="no"?>
<!DOCTYPE svg PUBLIC "-//W3C//DTD SVG 1.1//EN" "http://www.w3.org/Graphics/SVG/1.1/DTD/svg11.dtd">
<!-- Created with Vectornator (http://vectornator.io/) -->
<svg height="100%" stroke-miterlimit="10" style="fill-rule:nonzero;clip-rule:evenodd;stroke-linecap:round;stroke-linejoin:round;" version="1.1" viewBox="0 0 22 21" width="100%" xml:space="preserve" xmlns="http://www.w3.org/2000/svg" xmlns:vectornator="http://vectornator.io" xmlns:xlink="http://www.w3.org/1999/xlink">
<defs/>
<clipPath id="ArtboardFrame">
<rect height="21" width="22" x="0" y="0"/>
</clipPath>
<g clip-path="url(#ArtboardFrame)" id="Sans-titre" vectornator:layerName="Sans titre">
<path d="M12.2208 2.40551L12.2206 2.40576L11.3741 3.35732L11.0005 3.77727L10.627 3.35732L9.78047 2.40576L9.77992 2.40514C7.78271 0.152585 4.59762-0.169649 2.47664 1.80201C-0.0175439 4.1245-0.15494 8.32357 2.0848 10.8495L10.399 20.2148C10.399 20.2149 10.399 20.2149 10.3991 20.2149C10.7372 20.5955 11.2595 20.5955 11.5977 20.2149C11.5977 20.2149 11.5978 20.2149 11.5978 20.2148L19.9122 10.8493L19.9123 10.8492C22.1559 8.32335 22.0186 4.12461 19.5245 1.80213M12.2208 2.40551C14.2226 0.15233 17.4035-0.169452 19.5243 1.80187" fill="none" opacity="1" stroke="#101010" stroke-linecap="butt" stroke-linejoin="miter" stroke-width="1" vectornator:layerName="path"/>
</g>
</svg>
